<?xml version="1.0" encoding="UTF-8" standalone="no"?>
<!DOCTYPE svg PUBLIC "-//W3C//DTD SVG 1.1//EN" "http://www.w3.org/Graphics/SVG/1.1/DTD/svg11.dtd">
<svg width="100%" height="100%" viewBox="0 0 512 512" version="1.1" xmlns="http://www.w3.org/2000/svg" xmlns:xlink="http://www.w3.org/1999/xlink" xml:space="preserve" xmlns:serif="http://www.serif.com/" style="fill-rule:evenodd;clip-rule:evenodd;stroke-linecap:round;stroke-linejoin:round;stroke-miterlimit:10;">
    <g>
        <g transform="matrix(1.33333,0,0,-1.33333,0,512)">
            <rect x="39.11" y="135.247" width="111.055" height="104.638" style="fill:rgb(223,246,253);fill-rule:nonzero;"/>
        </g>
        <g transform="matrix(1.33333,0,0,-1.33333,0,512)">
            <rect x="39.11" y="213.511" width="111.055" height="26.373" style="fill:rgb(200,239,254);fill-rule:nonzero;"/>
        </g>
        <g transform="matrix(1.33333,0,0,-1.33333,63.6247,224.625)">
            <path d="M0,0L-16.687,0L-19.02,-2.02L-19.02,-74.719L1.803,-74.719L1.803,-2.02L0,0Z" style="fill:rgb(159,172,186);fill-rule:nonzero;"/>
        </g>
        <g transform="matrix(1.33333,0,0,-1.33333,212.083,224.583)">
            <path d="M0,0L-17.25,0L-19.308,-2.051L-19.308,-74.751L1.515,-74.751L1.515,-2.051L0,0Z" style="fill:rgb(159,172,186);fill-rule:nonzero;"/>
        </g>
        <g transform="matrix(1.33333,0,0,-1.33333,0,512)">
            <rect x="28.699" y="213.511" width="20.823" height="20.808" style="fill:rgb(141,156,168);fill-rule:nonzero;"/>
        </g>
        <g transform="matrix(1.33333,0,0,-1.33333,113.184,102.898)">
            <path d="M0,0L-65.881,-58.648L68.881,-58.648L3,0L0,0Z" style="fill:rgb(159,172,186);fill-rule:nonzero;"/>
        </g>
        <g transform="matrix(1.33333,0,0,-1.33333,0,512)">
            <clipPath id="_clip1">
                <rect x="0" y="0" width="384" height="384"/>
            </clipPath>
            <g clip-path="url(#_clip1)">
                <g transform="matrix(1,0,0,1,100.046,310.691)">
                    <path d="M0,0C-3.068,2.731 -7.748,2.731 -10.816,-0L-15.158,-3.865L50.722,-62.513L70.222,-62.513L0,0Z" style="fill:rgb(141,156,168);fill-rule:nonzero;"/>
                </g>
                <g transform="matrix(1,0,0,1,357.863,12.375)">
                    <path d="M0,0L0,98.364C0,102.066 -3.046,105.113 -6.748,105.114L-91.614,105.114C-95.317,105.114 -98.364,102.067 -98.364,98.364L-98.364,0C-98.364,-3.703 -95.317,-6.75 -91.614,-6.75L-6.75,-6.75C-3.047,-6.75 -0,-3.703 0,-0" style="fill:rgb(153,230,252);fill-rule:nonzero;"/>
                </g>
                <g transform="matrix(1,0,0,1,357.863,273.261)">
                    <path d="M0,0L0,98.364C0,102.067 -3.047,105.114 -6.75,105.114L-91.614,105.114C-95.317,105.114 -98.364,102.067 -98.364,98.364L-98.364,0C-98.364,-3.703 -95.317,-6.75 -91.614,-6.75L-6.747,-6.75C-3.045,-6.748 0,-3.702 -0,-0" style="fill:rgb(240,113,129);fill-rule:nonzero;"/>
                </g>
                <g transform="matrix(1,0,0,1,351.113,135.991)">
                    <path d="M0,0C3.703,-0 6.75,3.047 6.75,6.75L6.75,105.114C6.75,108.817 3.703,111.864 0,111.864L13.503,111.864L-84.864,111.864C-88.567,111.864 -91.614,108.817 -91.614,105.114L-91.614,6.75C-91.614,3.047 -88.567,0 -84.864,0L13.503,0L0,0Z" style="fill:rgb(253,185,126);fill-rule:nonzero;"/>
                </g>
                <g transform="matrix(1,0,0,1,364.613,117.489)">
                    <path d="M0,0L-16.5,0C-12.797,-0 -9.75,-3.047 -9.75,-6.75L-9.75,-105.114C-9.75,-108.817 -12.797,-111.864 -16.5,-111.864L0,-111.864C3.703,-111.864 6.75,-108.817 6.75,-105.114L6.75,-6.75C6.75,-3.047 3.703,-0 0,0" style="fill:rgb(98,219,251);fill-rule:nonzero;"/>
                </g>
                <g transform="matrix(1,0,0,1,169.959,154.195)">
                    <path d="M0,0L-19.5,0C-17.031,-0 -15,-2.031 -15,-4.5L-15,-22.267C-15,-24.735 -17.031,-26.767 -19.5,-26.767L0,-26.767C2.469,-26.767 4.5,-24.735 4.5,-22.267L4.5,-4.5C4.5,-2.031 2.469,-0 0,0" style="fill:rgb(159,172,186);fill-rule:nonzero;"/>
                </g>
                <rect x="139.754" y="213.511" width="20.823" height="20.808" style="fill:rgb(141,156,168);fill-rule:nonzero;"/>
                <g transform="matrix(1,0,0,1,364.613,378.375)">
                    <path d="M0,0L-16.5,0C-12.797,-0 -9.75,-3.047 -9.75,-6.75L-9.75,-105.114C-9.75,-108.817 -12.797,-111.864 -16.5,-111.864L0,-111.864C3.703,-111.864 6.75,-108.817 6.75,-105.114L6.75,-6.75C6.75,-3.047 3.703,-0 0,0" style="fill:rgb(235,85,105);fill-rule:nonzero;"/>
                </g>
                <g transform="matrix(1,0,0,1,364.613,247.856)">
                    <path d="M0,0L-16.5,0C-12.797,-0 -9.75,-3.047 -9.75,-6.75L-9.75,-105.114C-9.75,-108.817 -12.797,-111.864 -16.5,-111.864L0,-111.864C3.703,-111.864 6.75,-108.817 6.75,-105.114L6.75,-6.75C6.75,-3.047 3.703,-0 0,0" style="fill:rgb(254,169,92);fill-rule:nonzero;"/>
                </g>
                <g transform="matrix(1,0,0,1,153.459,127.428)">
                    <path d="M0,0C2.469,-0 4.5,2.031 4.5,4.5L4.5,22.267C4.5,24.735 2.469,26.766 0.001,26.767L-134.142,26.767C-136.611,26.767 -138.642,24.735 -138.642,22.267L-138.642,4.5C-138.642,2.031 -136.611,0 -134.142,0L16.501,0L0,0Z" style="fill:rgb(182,196,207);fill-rule:nonzero;"/>
                </g>
                <g transform="matrix(1,0,0,1,155.507,226.661)">
                    <path d="M0,0C2.541,-0 4.633,2.091 4.633,4.633C4.633,4.633 4.633,22.134 4.633,22.135C4.633,24.676 2.542,26.767 0.001,26.767C0.001,26.767 0,26.767 0,26.767L-138.238,26.767C-138.238,26.767 -138.238,26.767 -138.238,26.767C-140.779,26.767 -142.87,24.676 -142.87,22.135C-142.87,22.134 -142.87,4.633 -142.87,4.633C-142.87,2.091 -140.779,0 -138.238,0L0,0Z" style="fill:rgb(182,196,207);fill-rule:nonzero;"/>
                </g>
                <path d="M330.808,309.442L294.048,309.442L294.048,335.443L330.808,335.443L330.808,309.442ZM330.808,178.921L294.048,178.921L294.048,204.921L330.808,204.921L330.808,178.921ZM330.808,46.459L294.048,46.459L294.048,72.46L330.808,72.46L330.808,46.459Z" style="fill:rgb(89,108,118);fill-rule:nonzero;"/>
                <g transform="matrix(1,0,0,1,172.007,253.428)">
                    <path d="M0,0L-19.5,0C-16.959,-0 -14.867,-2.091 -14.867,-4.633C-14.867,-4.633 -14.867,-22.135 -14.867,-22.135C-14.867,-24.676 -16.958,-26.767 -19.499,-26.767C-19.499,-26.767 -19.5,-26.767 -19.5,-26.767C-19.5,-26.767 0,-26.767 0.001,-26.767C2.542,-26.767 4.633,-24.676 4.633,-22.135C4.633,-22.135 4.633,-4.633 4.633,-4.633C4.633,-2.091 2.541,-0 0,0" style="fill:rgb(159,172,186);fill-rule:nonzero;"/>
                </g>
                <g transform="matrix(1,0,0,1,174.459,127.428)">
                    <path d="M0,0L-159.642,0L-159.642,22.135C-159.642,24.676 -157.551,26.767 -155.01,26.767C-155.01,26.767 -155.009,26.767 -155.009,26.767L-4.633,26.767C-2.092,26.767 -0,24.676 0,22.135L0,0Z" style="fill:none;fill-rule:nonzero;stroke:black;stroke-width:11.25px;"/>
                </g>
                <g transform="matrix(1,0,0,1,172.007,226.661)">
                    <path d="M0,0L-154.738,0C-157.279,0 -159.37,2.091 -159.37,4.633C-159.37,4.633 -159.37,22.134 -159.37,22.135C-159.37,24.676 -157.279,26.767 -154.738,26.767C-154.738,26.767 -154.738,26.767 -154.738,26.767L0,26.767C0,26.767 0.001,26.767 0.001,26.767C2.542,26.767 4.633,24.676 4.633,22.135C4.633,22.134 4.633,4.633 4.633,4.633C4.633,2.091 2.541,0 0,0Z" style="fill:none;fill-rule:nonzero;stroke:black;stroke-width:11.25px;"/>
                </g>
                <g transform="matrix(1,0,0,1,194.358,213.324)">
                    <path d="M0,0L17.518,0C19.986,-0 22.018,2.031 22.018,4.5L22.018,110.993C22.018,113.462 24.049,115.493 26.518,115.493L39.328,115.493" style="fill:none;fill-rule:nonzero;stroke:black;stroke-width:11.25px;"/>
                </g>
                <g transform="matrix(1,0,0,1,194.358,191.92)">
                    <path d="M0,0L39.328,0" style="fill:none;fill-rule:nonzero;stroke:black;stroke-width:11.25px;"/>
                </g>
                <g transform="matrix(1,0,0,1,233.686,55.1827)">
                    <path d="M0,0L-17.518,0C-19.986,0 -22.018,2.031 -22.018,4.5L-22.018,110.993C-22.018,113.462 -24.049,115.493 -26.518,115.493L-39.328,115.493" style="fill:none;fill-rule:nonzero;stroke:black;stroke-width:11.25px;"/>
                </g>
                <g transform="matrix(1,0,0,1,259.499,273.261)">
                    <path d="M0,0L0,98.364C0,102.067 3.047,105.114 6.75,105.114L105.114,105.114C108.817,105.114 111.864,102.067 111.864,98.364L111.864,0C111.864,-3.703 108.817,-6.75 105.114,-6.75L6.75,-6.75C3.047,-6.75 -0,-3.703 0,0Z" style="fill:none;fill-rule:nonzero;stroke:black;stroke-width:11.25px;"/>
                </g>
                <g transform="matrix(1,0,0,1,259.499,142.741)">
                    <path d="M0,0L0,98.365C0,102.068 3.047,105.115 6.75,105.115L105.114,105.115C108.817,105.115 111.864,102.068 111.864,98.365L111.864,0C111.864,-3.703 108.817,-6.75 105.114,-6.75L6.75,-6.75C3.047,-6.75 -0,-3.703 0,0Z" style="fill:none;fill-rule:nonzero;stroke:black;stroke-width:11.25px;"/>
                </g>
                <g transform="matrix(1,0,0,1,259.499,12.375)">
                    <path d="M0,0L0,98.364C0,102.067 3.047,105.114 6.75,105.114L105.114,105.114C108.817,105.114 111.864,102.067 111.864,98.364L111.864,0C111.864,-3.703 108.817,-6.75 105.114,-6.75L6.75,-6.75C3.047,-6.75 -0,-3.703 0,0Z" style="fill:none;fill-rule:nonzero;stroke:black;stroke-width:11.25px;stroke-dasharray:445,35,474,0;"/>
                </g>
                <g transform="matrix(1,0,0,1,280.255,204.921)">
                    <path d="M0,0L71.683,0" style="fill:none;fill-rule:nonzero;stroke:black;stroke-width:11.25px;"/>
                </g>
                <g transform="matrix(1,0,0,1,280.255,335.443)">
                    <path d="M0,0L71.683,0" style="fill:none;fill-rule:nonzero;stroke:black;stroke-width:11.25px;"/>
                </g>
                <rect x="294.048" y="309.442" width="36.76" height="26" style="fill:none;fill-rule:nonzero;stroke:black;stroke-width:11.25px;"/>
                <g transform="matrix(1,0,0,1,348.883,335.443)">
                    <path d="M0,0L0,-26" style="fill:none;fill-rule:nonzero;stroke:black;stroke-width:11.25px;"/>
                </g>
                <rect x="294.048" y="178.921" width="36.76" height="26" style="fill:none;fill-rule:nonzero;stroke:black;stroke-width:11.25px;"/>
                <g transform="matrix(1,0,0,1,348.883,204.921)">
                    <path d="M0,0L0,-26" style="fill:none;fill-rule:nonzero;stroke:black;stroke-width:11.25px;"/>
                </g>
                <g transform="matrix(1,0,0,1,280.255,72.4597)">
                    <path d="M0,0L71.683,0" style="fill:none;fill-rule:nonzero;stroke:black;stroke-width:11.25px;"/>
                </g>
                <rect x="294.048" y="46.459" width="36.76" height="26" style="fill:none;fill-rule:nonzero;stroke:black;stroke-width:11.25px;"/>
                <g transform="matrix(1,0,0,1,348.883,72.4597)">
                    <path d="M0,0L0,-26" style="fill:none;fill-rule:nonzero;stroke:black;stroke-width:11.25px;"/>
                </g>
                <g transform="matrix(1,0,0,1,79.2945,207.886)">
                    <path d="M0,0L0,-16.429C0,-24.903 6.87,-31.772 15.343,-31.772C23.818,-31.772 30.688,-24.903 30.688,-16.429L30.688,0" style="fill:none;fill-rule:nonzero;stroke:black;stroke-width:11.25px;"/>
                </g>
                <g transform="matrix(1,0,0,1,74.1795,207.886)">
                    <path d="M0,0L10.229,0" style="fill:none;fill-rule:nonzero;stroke:black;stroke-width:11.25px;"/>
                </g>
                <g transform="matrix(1,0,0,1,104.867,207.886)">
                    <path d="M0,0L10.229,0" style="fill:none;fill-rule:nonzero;stroke:black;stroke-width:11.25px;"/>
                </g>
                <rect x="28.699" y="154.195" width="20.823" height="72.466" style="fill:none;fill-rule:nonzero;stroke:black;stroke-width:11.25px;"/>
                <g transform="matrix(1,0,0,1,164.372,253.428)">
                    <path d="M0,0L-64.326,57.263C-67.394,59.994 -72.074,59.994 -75.142,57.263L-139.468,0L0,0Z" style="fill:none;fill-rule:nonzero;stroke:black;stroke-width:11.25px;stroke-dasharray:169,35,474,0;"/>
                </g>
                <rect x="139.754" y="154.195" width="20.823" height="72.466" style="fill:none;fill-rule:nonzero;stroke:black;stroke-width:11.25px;"/>
            </g>
        </g>
    </g>
</svg>
