<?xml version="1.0" encoding="UTF-8" standalone="no"?>
<svg
   version="1.1"
   width="512"
   height="512"
   x="0"
   y="0"
   viewBox="0 0 682.667 682.667"
   xml:space="preserve"
   class=""
   id="svg61"
   xmlns="http://www.w3.org/2000/svg"
   xmlns:svg="http://www.w3.org/2000/svg"><defs
     id="defs65" /><g
     id="g59"><defs
       id="defs5"><clipPath
         id="a"
         clipPathUnits="userSpaceOnUse"><path
           d="M 0,512 H 512 V 0 H 0 Z"
           fill="#000000"
           data-original="#000000"
           id="path2" /></clipPath></defs><g
       clip-path="url(#a)"
       transform="matrix(1.33333,0,0,-1.33333,0,682.667)"
       id="g57"><path
         d="m 0,0 v -107.199 c 0,-6.577 -3.531,-12.62 -9.259,-15.848 -17.729,-10.036 -60.722,-29.524 -126.918,-29.524 -66.219,0 -109.213,19.488 -126.942,29.524 a 18.182,18.182 0 0 0 -9.247,15.848 V 0 Z"
         style="fill-opacity:1;fill-rule:nonzero;stroke:none"
         transform="translate(392.187,348.723)"
         fill="#557983"
         data-original="#557983"
         class=""
         id="path7" /><path
         d="M 0,0 V -58.915 L -129.333,-97.03 a 24.182,24.182 0 0 0 -13.712,0 l -129.321,38.104 V 0 Z"
         style="fill-opacity:1;fill-rule:nonzero;stroke:none"
         transform="translate(392.187,348.723)"
         fill="#47666b"
         data-original="#47666b"
         class=""
         id="path9" /><path
         d="m 0,0 v -107.199 c 0,-6.577 -3.531,-12.62 -9.259,-15.848 -5.788,-3.276 -14.27,-7.572 -25.387,-11.855 a 18.138,18.138 0 0 1 5.62,13.141 V 0 Z"
         style="fill-opacity:1;fill-rule:nonzero;stroke:none"
         transform="translate(392.187,348.723)"
         fill="#47666b"
         data-original="#47666b"
         class=""
         id="path11" /><path
         d="m 0,0 v -107.202 a 18.2,18.2 0 0 0 -9.25,-15.851 c -17.731,-10.025 -60.722,-29.518 -126.927,-29.518 -66.215,0 -109.207,19.493 -126.939,29.518 a 18.2,18.2 0 0 0 -9.25,15.851 V 0 Z"
         style="stroke-width:15;stroke-linecap:round;stroke-linejoin:round;stroke-miterlimit:10;stroke-dasharray:none;stroke-opacity:1"
         transform="translate(392.183,348.723)"
         fill="none"
         stroke="#000000"
         stroke-width="15"
         stroke-linecap="round"
         stroke-linejoin="round"
         stroke-miterlimit="10"
         stroke-dasharray="none"
         stroke-opacity=""
         data-original="#000000"
         class=""
         id="path13" /><path
         d="m 0,0 -236.417,-69.665 c -6.964,-2.051 -6.964,-11.915 0,-13.967 L 0,-153.297 a 24.28,24.28 0 0 1 13.72,0 l 236.416,69.665 c 6.965,2.052 6.965,11.916 0,13.967 L 13.72,0 A 24.28,24.28 0 0 1 0,0"
         style="fill-opacity:1;fill-rule:nonzero;stroke:none"
         transform="translate(249.14,430.226)"
         fill="#698d97"
         data-original="#698d97"
         class=""
         id="path15" /><path
         d="m 0,0 -236.423,-69.666 a 24.182,24.182 0 0 0 -13.712,0 L -289.27,-58.138 -22.292,20.532 0,13.967 C 6.965,11.904 6.965,2.051 0,0"
         style="fill-opacity:1;fill-rule:nonzero;stroke:none"
         transform="translate(499.276,346.6)"
         fill="#557983"
         data-original="#557983"
         class=""
         id="path17" /><path
         d="m 0,0 65.823,-19.396 a 24.277,24.277 0 0 1 13.719,0 l 236.416,69.665 c 6.965,2.052 6.965,11.916 0,13.968 l -67.949,20.022"
         style="stroke-width:15;stroke-linecap:round;stroke-linejoin:round;stroke-miterlimit:10;stroke-dasharray:none;stroke-opacity:1"
         transform="translate(183.317,296.325)"
         fill="none"
         stroke="#000000"
         stroke-width="15"
         stroke-linecap="round"
         stroke-linejoin="round"
         stroke-miterlimit="10"
         stroke-dasharray="none"
         stroke-opacity=""
         data-original="#000000"
         class=""
         id="path19" /><path
         d="m 0,0 -135.953,40.061 a 24.28,24.28 0 0 1 -13.72,0 l -236.416,-69.664 c -6.965,-2.052 -6.965,-11.916 -10e-4,-13.968 l 138.667,-40.861"
         style="stroke-width:15;stroke-linecap:round;stroke-linejoin:round;stroke-miterlimit:10;stroke-dasharray:none;stroke-opacity:1"
         transform="translate(398.813,390.165)"
         fill="none"
         stroke="#000000"
         stroke-width="15"
         stroke-linecap="round"
         stroke-linejoin="round"
         stroke-miterlimit="10"
         stroke-dasharray="none"
         stroke-opacity=""
         data-original="#000000"
         class=""
         id="path21" /><path
         d="M 0,0 V 68.517 L -207.498,85.618"
         style="stroke-width:15;stroke-linecap:round;stroke-linejoin:round;stroke-miterlimit:10;stroke-dasharray:none;stroke-opacity:1"
         transform="translate(469.616,269.337)"
         fill="none"
         stroke="#000000"
         stroke-width="15"
         stroke-linecap="round"
         stroke-linejoin="round"
         stroke-miterlimit="10"
         stroke-dasharray="none"
         stroke-opacity=""
         data-original="#000000"
         class=""
         id="path23" /><path
         d="m 0,0 c 0,-12.917 -10.472,-23.388 -23.389,-23.388 -12.916,0 -23.387,10.471 -23.387,23.388 0,12.917 10.471,23.388 23.387,23.388 C -10.472,23.388 0,12.917 0,0"
         style="fill-opacity:1;fill-rule:nonzero;stroke:none"
         transform="translate(493.005,245.038)"
         fill="#fcdd45"
         data-original="#fcdd45"
         id="path25" /><path
         d="m 0,0 c 0,-12.912 -10.472,-23.384 -23.384,-23.384 -5.035,0 -9.707,1.59 -13.517,4.308 9.161,1.517 16.151,9.49 16.151,19.076 0,9.599 -6.99,17.571 -16.151,19.088 a 23.201,23.201 0 0 0 13.517,4.308 C -10.472,23.396 0,12.923 0,0"
         style="fill-opacity:1;fill-rule:nonzero;stroke:none"
         transform="translate(493.002,245.033)"
         fill="#f8c52d"
         data-original="#f8c52d"
         class=""
         id="path27" /><path
         d="m 0,0 c -6.754,0 -12.209,5.512 -12.137,12.266 0.315,29.372 2.855,60.57 23.343,60.57 20.489,0 23.029,-31.198 23.344,-60.57 C 34.622,5.512 29.167,0 22.413,0 Z"
         style="fill-opacity:1;fill-rule:nonzero;stroke:none"
         transform="translate(458.41,148.814)"
         fill="#f8c52d"
         data-original="#f8c52d"
         class=""
         id="path29" /><path
         d="M 0,0 C 0.061,-6.759 -5.388,-12.268 -12.146,-12.268 H -34.56 c -0.158,0 -0.315,0 -0.461,0.012 6.541,0.242 11.747,5.655 11.673,12.256 -0.242,22.462 -1.783,46.003 -11.673,55.82 3.034,3.022 6.856,4.745 11.673,4.745 C -2.864,60.565 -0.315,29.366 0,0"
         style="fill-opacity:1;fill-rule:nonzero;stroke:none"
         transform="translate(492.966,161.084)"
         fill="#e7b729"
         data-original="#e7b729"
         class=""
         id="path31" /><path
         d="m 0,0 c 0,-12.917 -10.472,-23.388 -23.389,-23.388 -12.916,0 -23.387,10.471 -23.387,23.388 0,12.917 10.471,23.388 23.387,23.388 C -10.472,23.388 0,12.917 0,0 Z"
         style="stroke-width:15;stroke-linecap:round;stroke-linejoin:round;stroke-miterlimit:10;stroke-dasharray:none;stroke-opacity:1"
         transform="translate(493.005,245.038)"
         fill="none"
         stroke="#000000"
         stroke-width="15"
         stroke-linecap="round"
         stroke-linejoin="round"
         stroke-miterlimit="10"
         stroke-dasharray="none"
         stroke-opacity=""
         data-original="#000000"
         class=""
         id="path33" /><path
         d="m 0,0 c -6.754,0 -12.209,5.512 -12.137,12.266 0.315,29.372 2.855,60.57 23.343,60.57 20.489,0 23.029,-31.198 23.344,-60.57 C 34.622,5.512 29.167,0 22.413,0 Z"
         style="stroke-width:15;stroke-linecap:round;stroke-linejoin:round;stroke-miterlimit:10;stroke-dasharray:none;stroke-opacity:1"
         transform="translate(458.41,148.814)"
         fill="none"
         stroke="#000000"
         stroke-width="15"
         stroke-linecap="round"
         stroke-linejoin="round"
         stroke-miterlimit="10"
         stroke-dasharray="none"
         stroke-opacity=""
         data-original="#000000"
         class=""
         id="path35" /><path
         d="m 0,0 c -19.024,-13.177 -65.147,-38.798 -136.177,-38.798 -71.039,0 -117.164,25.621 -136.189,38.798"
         style="stroke-width:15;stroke-linecap:round;stroke-linejoin:round;stroke-miterlimit:10;stroke-dasharray:none;stroke-opacity:1"
         transform="translate(392.183,270.104)"
         fill="none"
         stroke="#000000"
         stroke-width="15"
         stroke-linecap="round"
         stroke-linejoin="round"
         stroke-miterlimit="10"
         stroke-dasharray="none"
         stroke-opacity=""
         data-original="#000000"
         class=""
         id="path37" /><path
         d="m 0,0 c 11.981,-3.659 27.038,10.876 33.63,32.465 6.592,21.588 2.223,42.055 -9.759,45.713 l -289.24,88.318 -23.871,-78.179 z"
         style="fill-opacity:1;fill-rule:nonzero;stroke:none"
         transform="translate(333.894,81.353)"
         fill="#31a7fb"
         data-original="#31a7fb"
         class=""
         id="path39" /><path
         d="m 0,0 c -6.591,-21.586 -21.653,-36.121 -33.627,-32.465 l -165.659,50.583 23.87,78.177 165.66,-50.583 C 2.218,42.056 6.594,21.596 0,0"
         style="fill-opacity:1;fill-rule:nonzero;stroke:none"
         transform="translate(243.94,151.55)"
         fill="#1c96f9"
         data-original="#1c96f9"
         class=""
         id="path41" /><path
         d="M 0,0 C -6.591,-21.586 -21.653,-36.121 -33.627,-32.465 L -178.245,11.693 -154.375,89.87 -9.756,45.712 C 2.218,42.056 6.594,21.596 0,0"
         style="fill-opacity:1;fill-rule:nonzero;stroke:none"
         transform="translate(222.899,157.975)"
         fill="#64b9fc"
         data-original="#64b9fc"
         class=""
         id="path43" /><path
         d="m 0,0 c -6.591,-21.584 -21.651,-36.124 -33.63,-32.466 l -26.5,8.091 c 11.988,-3.66 27.039,10.882 33.63,32.466 6.594,21.595 2.23,42.055 -9.758,45.715 l 26.5,-8.091 C 2.221,42.057 6.594,21.595 0,0"
         style="fill-opacity:1;fill-rule:nonzero;stroke:none"
         transform="translate(367.523,113.814)"
         fill="#1c96f9"
         data-original="#1c96f9"
         class=""
         id="path45" /><path
         d="m 0,0 c 11.981,-3.659 27.038,10.876 33.63,32.465 6.592,21.588 2.223,42.055 -9.759,45.713 l -289.24,88.318 -23.871,-78.179 z"
         style="stroke-width:15;stroke-linecap:round;stroke-linejoin:round;stroke-miterlimit:10;stroke-dasharray:none;stroke-opacity:1"
         transform="translate(333.894,81.353)"
         fill="none"
         stroke="#000000"
         stroke-width="15"
         stroke-linecap="round"
         stroke-linejoin="round"
         stroke-miterlimit="10"
         stroke-dasharray="none"
         stroke-opacity=""
         data-original="#000000"
         class=""
         id="path47" /><path
         d="m 0,0 c -6.592,-21.588 -21.648,-36.124 -33.63,-32.465 -11.981,3.658 -16.35,24.125 -9.759,45.714 6.592,21.588 21.649,36.123 33.63,32.464 C 2.223,42.055 6.592,21.588 0,0"
         style="fill-opacity:1;fill-rule:nonzero;stroke:none"
         transform="translate(78.283,202.135)"
         fill="#1785f8"
         data-original="#1785f8"
         id="path49" /><path
         d="m 0,0 c -6.591,-21.584 -21.642,-36.127 -33.63,-32.466 -3.95,1.206 -7.07,4.241 -9.25,8.542 8.554,4.776 16.768,16.079 21.186,30.548 4.418,14.469 3.919,28.433 -0.508,37.173 4.211,2.349 8.494,3.124 12.444,1.918 C 2.23,42.054 6.594,21.595 0,0"
         style="fill-opacity:1;fill-rule:nonzero;stroke:none"
         transform="translate(78.28,202.133)"
         fill="#1576f7"
         data-original="#1576f7"
         class=""
         id="path51" /><path
         d="m 0,0 c 0.487,14.154 -4.19,25.45 -12.795,28.077 -11.981,3.658 -27.038,-10.877 -33.63,-32.465 -6.592,-21.589 -2.222,-42.055 9.759,-45.714 9.059,-2.766 19.874,4.873 27.461,18.094"
         style="stroke-width:15;stroke-linecap:round;stroke-linejoin:round;stroke-miterlimit:10;stroke-dasharray:none;stroke-opacity:1"
         transform="translate(81.32,219.772)"
         fill="none"
         stroke="#000000"
         stroke-width="15"
         stroke-linecap="round"
         stroke-linejoin="round"
         stroke-miterlimit="10"
         stroke-dasharray="none"
         stroke-opacity=""
         data-original="#000000"
         class=""
         id="path53" /><path
         d="M 0,0 C 11.974,-3.656 16.35,-24.116 9.756,-45.712 3.165,-67.298 -11.897,-81.833 -23.871,-78.177"
         style="stroke-width:15;stroke-linecap:round;stroke-linejoin:round;stroke-miterlimit:10;stroke-dasharray:none;stroke-opacity:1"
         transform="translate(213.143,203.686)"
         fill="none"
         stroke="#000000"
         stroke-width="15"
         stroke-linecap="round"
         stroke-linejoin="round"
         stroke-miterlimit="10"
         stroke-dasharray="none"
         stroke-opacity=""
         data-original="#000000"
         class=""
         id="path55" /></g></g></svg>
