<svg xmlns="http://www.w3.org/2000/svg" version="1.1" xmlns:xlink="http://www.w3.org/1999/xlink" xmlns:svgjs="http://svgjs.com/svgjs" width="512" height="512" x="0" y="0" viewBox="0 0 682.667 682.667" style="enable-background:new 0 0 512 512" xml:space="preserve" class=""><g><defs><clipPath id="a" clipPathUnits="userSpaceOnUse"><path d="M0 512h512V0H0Z" fill="#000000" data-original="#000000"></path></clipPath></defs><path d="M200.221 180.329H52.147v139.517h148.074z" style="fill-opacity:1;fill-rule:nonzero;stroke:none" transform="matrix(1.33333 0 0 -1.33333 0 682.667)" fill="#dff6fd" data-original="#dff6fd"></path><path d="M200.221 284.682H52.147v35.164h148.074z" style="fill-opacity:1;fill-rule:nonzero;stroke:none" transform="matrix(1.33333 0 0 -1.33333 0 682.667)" fill="#c8effe" data-original="#c8effe" class=""></path><path d="M0 0h-22.25l-3.11-2.693v-96.933H2.404v96.933z" style="fill-opacity:1;fill-rule:nonzero;stroke:none" transform="matrix(1.33333 0 0 -1.33333 84.833 299.5)" fill="#9facba" data-original="#9facba" class=""></path><path d="M0 0h-23l-2.744-2.735v-96.933H2.02v96.933z" style="fill-opacity:1;fill-rule:nonzero;stroke:none" transform="matrix(1.33333 0 0 -1.33333 282.778 299.444)" fill="#9facba" data-original="#9facba" class=""></path><path d="M38.265 284.682h27.764v27.744H38.265Z" style="fill-opacity:1;fill-rule:nonzero;stroke:none" transform="matrix(1.33333 0 0 -1.33333 0 682.667)" fill="#8d9ca8" data-original="#8d9ca8"></path><path d="m0 0-87.841-78.197H91.841L4 0Z" style="fill-opacity:1;fill-rule:nonzero;stroke:none" transform="matrix(1.33333 0 0 -1.33333 150.912 137.198)" fill="#9facba" data-original="#9facba" class=""></path><g clip-path="url(#a)" transform="matrix(1.33333 0 0 -1.33333 0 682.667)"><path d="M0 0a10.845 10.845 0 0 1-14.421 0l-5.79-5.153L67.63-83.351h26z" style="fill-opacity:1;fill-rule:nonzero;stroke:none" transform="translate(133.395 414.255)" fill="#8d9ca8" data-original="#8d9ca8"></path><path d="M0 0v131.152a9 9 0 0 1-8.998 9h-113.154a9 9 0 0 1-9-9V0a9 9 0 0 1 9-9H-9a9 9 0 0 1 9 9" style="fill-opacity:1;fill-rule:nonzero;stroke:none" transform="translate(477.151 16.5)" fill="#99e6fc" data-original="#99e6fc"></path><path d="M0 0v131.152a9 9 0 0 1-9 9h-113.152a9 9 0 0 1-9-9V0a9 9 0 0 1 9-9H-8.996A9 9 0 0 1 0 0" style="fill-opacity:1;fill-rule:nonzero;stroke:none" transform="translate(477.151 364.348)" fill="#f07181" data-original="#f07181" class=""></path><path d="M0 0a9 9 0 0 1 9 9v131.152a9 9 0 0 1-9 9h18.004H-113.152a9 9 0 0 1-9-9V9a9 9 0 0 1 9-9H18.004Z" style="fill-opacity:1;fill-rule:nonzero;stroke:none" transform="translate(468.151 181.322)" fill="#fdb97e" data-original="#fdb97e" class=""></path><path d="M0 0h-22a9 9 0 0 0 9-9v-131.152a9 9 0 0 0-9-9H0a9 9 0 0 1 9 9V-9a9 9 0 0 1-9 9" style="fill-opacity:1;fill-rule:nonzero;stroke:none" transform="translate(486.151 156.652)" fill="#62dbfb" data-original="#62dbfb" class=""></path><path d="M0 0h-26a6 6 0 0 0 6-6v-23.689a6 6 0 0 0-6-6H0a6 6 0 0 1 6 6V-6a6 6 0 0 1-6 6" style="fill-opacity:1;fill-rule:nonzero;stroke:none" transform="translate(226.612 205.594)" fill="#9facba" data-original="#9facba" class=""></path><path d="M186.339 284.682h27.764v27.744h-27.764z" style="fill-opacity:1;fill-rule:nonzero;stroke:none" fill="#8d9ca8" data-original="#8d9ca8"></path><path d="M0 0h-22a9 9 0 0 0 9-9v-131.152a9 9 0 0 0-9-9H0a9 9 0 0 1 9 9V-9a9 9 0 0 1-9 9" style="fill-opacity:1;fill-rule:nonzero;stroke:none" transform="translate(486.151 504.5)" fill="#eb5569" data-original="#eb5569" class=""></path><path d="M0 0h-22a9 9 0 0 0 9-9v-131.152a9 9 0 0 0-9-9H0a9 9 0 0 1 9 9V-9a9 9 0 0 1-9 9" style="fill-opacity:1;fill-rule:nonzero;stroke:none" transform="translate(486.151 330.475)" fill="#fea95c" data-original="#fea95c" class=""></path><path d="M0 0a6 6 0 0 1 6 6v23.689a6 6 0 0 1-5.999 6h-178.857a6 6 0 0 1-6-6V6a6 6 0 0 1 6-6H22.002Z" style="fill-opacity:1;fill-rule:nonzero;stroke:none" transform="translate(204.612 169.904)" fill="#b6c4cf" data-original="#b6c4cf" class=""></path><path d="M0 0a6.177 6.177 0 0 1 6.177 6.177v23.335A6.176 6.176 0 0 1 0 35.689h-184.317a6.176 6.176 0 0 1-6.177-6.177V6.177A6.177 6.177 0 0 1-184.317 0z" style="fill-opacity:1;fill-rule:nonzero;stroke:none" transform="translate(207.343 302.215)" fill="#b6c4cf" data-original="#b6c4cf" class=""></path><path d="M441.078 412.59h-49.014v34.667h49.014zM441.078 238.561h-49.014v34.667h49.014zM441.078 61.946h-49.014v34.667h49.014z" style="fill-opacity:1;fill-rule:nonzero;stroke:none" fill="#596c76" data-original="#596c76"></path><path d="M0 0h-26a6.177 6.177 0 0 0 6.177-6.178v-23.335A6.176 6.176 0 0 0-26-35.689H0a6.176 6.176 0 0 1 6.177 6.176v23.335A6.177 6.177 0 0 1 0 0" style="fill-opacity:1;fill-rule:nonzero;stroke:none" transform="translate(229.343 337.904)" fill="#9facba" data-original="#9facba" class=""></path><path d="M0 0h-212.856v29.513a6.176 6.176 0 0 0 6.177 6.176H-6.177A6.177 6.177 0 0 0 0 29.513Z" style="stroke-width:15;stroke-linecap:round;stroke-linejoin:round;stroke-miterlimit:10;stroke-dasharray:none;stroke-opacity:1" transform="translate(232.612 169.904)" fill="none" stroke="#000000" stroke-width="15" stroke-linecap="round" stroke-linejoin="round" stroke-miterlimit="10" stroke-dasharray="none" stroke-opacity="" data-original="#000000" class=""></path><path d="M0 0h-206.317a6.177 6.177 0 0 0-6.177 6.177v23.335a6.176 6.176 0 0 0 6.177 6.177H0a6.176 6.176 0 0 0 6.177-6.177V6.177A6.177 6.177 0 0 0 0 0Z" style="stroke-width:15;stroke-linecap:round;stroke-linejoin:round;stroke-miterlimit:10;stroke-dasharray:none;stroke-opacity:1" transform="translate(229.343 302.215)" fill="none" stroke="#000000" stroke-width="15" stroke-linecap="round" stroke-linejoin="round" stroke-miterlimit="10" stroke-dasharray="none" stroke-opacity="" data-original="#000000" class=""></path><path d="M0 0h23.357a6 6 0 0 1 6 6v141.991a6 6 0 0 0 6 6h17.081" style="stroke-width:15;stroke-linecap:round;stroke-linejoin:round;stroke-miterlimit:10;stroke-dasharray:none;stroke-opacity:1" transform="translate(259.144 284.432)" fill="none" stroke="#000000" stroke-width="15" stroke-linecap="round" stroke-linejoin="round" stroke-miterlimit="10" stroke-dasharray="none" stroke-opacity="" data-original="#000000" class=""></path><path d="M0 0h52.438" style="stroke-width:15;stroke-linecap:round;stroke-linejoin:round;stroke-miterlimit:10;stroke-dasharray:none;stroke-opacity:1" transform="translate(259.144 255.894)" fill="none" stroke="#000000" stroke-width="15" stroke-linecap="round" stroke-linejoin="round" stroke-miterlimit="10" stroke-dasharray="none" stroke-opacity="" data-original="#000000" class=""></path><path d="M0 0h-23.357a6 6 0 0 0-6 6v141.991a6 6 0 0 1-6 6h-17.081" style="stroke-width:15;stroke-linecap:round;stroke-linejoin:round;stroke-miterlimit:10;stroke-dasharray:none;stroke-opacity:1" transform="translate(311.582 73.577)" fill="none" stroke="#000000" stroke-width="15" stroke-linecap="round" stroke-linejoin="round" stroke-miterlimit="10" stroke-dasharray="none" stroke-opacity="" data-original="#000000" class=""></path><path d="M0 0v131.152a9 9 0 0 0 9 9h131.152a9 9 0 0 0 9-9V0a9 9 0 0 0-9-9H9a9 9 0 0 0-9 9Z" style="stroke-width:15;stroke-linecap:round;stroke-linejoin:round;stroke-miterlimit:10;stroke-dasharray:none;stroke-opacity:1" transform="translate(345.999 364.348)" fill="none" stroke="#000000" stroke-width="15" stroke-linecap="round" stroke-linejoin="round" stroke-miterlimit="10" stroke-dasharray="none" stroke-opacity="" data-original="#000000" class=""></path><path d="M0 0v131.153a9 9 0 0 0 9 9h131.152a9 9 0 0 0 9-9V0a9 9 0 0 0-9-9H9a9 9 0 0 0-9 9Z" style="stroke-width:15;stroke-linecap:round;stroke-linejoin:round;stroke-miterlimit:10;stroke-dasharray:none;stroke-opacity:1" transform="translate(345.999 190.322)" fill="none" stroke="#000000" stroke-width="15" stroke-linecap="round" stroke-linejoin="round" stroke-miterlimit="10" stroke-dasharray="none" stroke-opacity="" data-original="#000000" class=""></path><path d="M0 0v131.152a9 9 0 0 0 9 9h131.152a9 9 0 0 0 9-9V0a9 9 0 0 0-9-9H9a9 9 0 0 0-9 9Z" style="stroke-width:15;stroke-linecap:round;stroke-linejoin:round;stroke-miterlimit:10;stroke-dasharray:445, 35, 474, 0;stroke-dashoffset:0;stroke-opacity:1" transform="translate(345.999 16.5)" fill="none" stroke="#000000" stroke-width="15" stroke-linecap="round" stroke-linejoin="round" stroke-miterlimit="10" stroke-dasharray="445, 35, 474, 0" stroke-dashoffset="0" stroke-opacity="" data-original="#000000" class=""></path><path d="M0 0h95.577" style="stroke-width:15;stroke-linecap:round;stroke-linejoin:round;stroke-miterlimit:10;stroke-dasharray:none;stroke-opacity:1" transform="translate(373.673 273.228)" fill="none" stroke="#000000" stroke-width="15" stroke-linecap="round" stroke-linejoin="round" stroke-miterlimit="10" stroke-dasharray="none" stroke-opacity="" data-original="#000000" class=""></path><path d="M0 0h95.577" style="stroke-width:15;stroke-linecap:round;stroke-linejoin:round;stroke-miterlimit:10;stroke-dasharray:none;stroke-opacity:1" transform="translate(373.673 447.257)" fill="none" stroke="#000000" stroke-width="15" stroke-linecap="round" stroke-linejoin="round" stroke-miterlimit="10" stroke-dasharray="none" stroke-opacity="" data-original="#000000" class=""></path><path d="M441.078 412.59h-49.014v34.667h49.014z" style="stroke-width:15;stroke-linecap:round;stroke-linejoin:round;stroke-miterlimit:10;stroke-dasharray:none;stroke-opacity:1" fill="none" stroke="#000000" stroke-width="15" stroke-linecap="round" stroke-linejoin="round" stroke-miterlimit="10" stroke-dasharray="none" stroke-opacity="" data-original="#000000" class=""></path><path d="M0 0v-34.667" style="stroke-width:15;stroke-linecap:round;stroke-linejoin:round;stroke-miterlimit:10;stroke-dasharray:none;stroke-opacity:1" transform="translate(465.178 447.257)" fill="none" stroke="#000000" stroke-width="15" stroke-linecap="round" stroke-linejoin="round" stroke-miterlimit="10" stroke-dasharray="none" stroke-opacity="" data-original="#000000" class=""></path><path d="M441.078 238.561h-49.014v34.667h49.014z" style="stroke-width:15;stroke-linecap:round;stroke-linejoin:round;stroke-miterlimit:10;stroke-dasharray:none;stroke-opacity:1" fill="none" stroke="#000000" stroke-width="15" stroke-linecap="round" stroke-linejoin="round" stroke-miterlimit="10" stroke-dasharray="none" stroke-opacity="" data-original="#000000" class=""></path><path d="M0 0v-34.667" style="stroke-width:15;stroke-linecap:round;stroke-linejoin:round;stroke-miterlimit:10;stroke-dasharray:none;stroke-opacity:1" transform="translate(465.178 273.228)" fill="none" stroke="#000000" stroke-width="15" stroke-linecap="round" stroke-linejoin="round" stroke-miterlimit="10" stroke-dasharray="none" stroke-opacity="" data-original="#000000" class=""></path><path d="M0 0h95.577" style="stroke-width:15;stroke-linecap:round;stroke-linejoin:round;stroke-miterlimit:10;stroke-dasharray:none;stroke-opacity:1" transform="translate(373.673 96.613)" fill="none" stroke="#000000" stroke-width="15" stroke-linecap="round" stroke-linejoin="round" stroke-miterlimit="10" stroke-dasharray="none" stroke-opacity="" data-original="#000000" class=""></path><path d="M441.078 61.946h-49.014v34.667h49.014z" style="stroke-width:15;stroke-linecap:round;stroke-linejoin:round;stroke-miterlimit:10;stroke-dasharray:none;stroke-opacity:1" fill="none" stroke="#000000" stroke-width="15" stroke-linecap="round" stroke-linejoin="round" stroke-miterlimit="10" stroke-dasharray="none" stroke-opacity="" data-original="#000000" class=""></path><path d="M0 0v-34.667" style="stroke-width:15;stroke-linecap:round;stroke-linejoin:round;stroke-miterlimit:10;stroke-dasharray:none;stroke-opacity:1" transform="translate(465.178 96.613)" fill="none" stroke="#000000" stroke-width="15" stroke-linecap="round" stroke-linejoin="round" stroke-miterlimit="10" stroke-dasharray="none" stroke-opacity="" data-original="#000000" class=""></path><path d="M0 0v-21.905c0-11.299 9.16-20.458 20.458-20.458 11.3 0 20.459 9.159 20.459 20.458V0" style="stroke-width:15;stroke-linecap:round;stroke-linejoin:round;stroke-miterlimit:10;stroke-dasharray:none;stroke-opacity:1" transform="translate(105.726 277.182)" fill="none" stroke="#000000" stroke-width="15" stroke-linecap="round" stroke-linejoin="round" stroke-miterlimit="10" stroke-dasharray="none" stroke-opacity="" data-original="#000000" class=""></path><path d="M0 0h13.639" style="stroke-width:15;stroke-linecap:round;stroke-linejoin:round;stroke-miterlimit:10;stroke-dasharray:none;stroke-opacity:1" transform="translate(98.906 277.182)" fill="none" stroke="#000000" stroke-width="15" stroke-linecap="round" stroke-linejoin="round" stroke-miterlimit="10" stroke-dasharray="none" stroke-opacity="" data-original="#000000" class=""></path><path d="M0 0h13.639" style="stroke-width:15;stroke-linecap:round;stroke-linejoin:round;stroke-miterlimit:10;stroke-dasharray:none;stroke-opacity:1" transform="translate(139.823 277.182)" fill="none" stroke="#000000" stroke-width="15" stroke-linecap="round" stroke-linejoin="round" stroke-miterlimit="10" stroke-dasharray="none" stroke-opacity="" data-original="#000000" class=""></path><path d="M66.029 302.215H38.265v-96.621h27.764z" style="stroke-width:15;stroke-linecap:round;stroke-linejoin:round;stroke-miterlimit:10;stroke-dasharray:none;stroke-opacity:1" fill="none" stroke="#000000" stroke-width="15" stroke-linecap="round" stroke-linejoin="round" stroke-miterlimit="10" stroke-dasharray="none" stroke-opacity="" data-original="#000000" class=""></path><path d="m0 0-85.768 76.351a10.845 10.845 0 0 1-14.421 0L-185.957 0Z" style="stroke-width:15;stroke-linecap:round;stroke-linejoin:round;stroke-miterlimit:10;stroke-dasharray:169, 35, 474, 0;stroke-dashoffset:0;stroke-opacity:1" transform="translate(219.163 337.904)" fill="none" stroke="#000000" stroke-width="15" stroke-linecap="round" stroke-linejoin="round" stroke-miterlimit="10" stroke-dasharray="169, 35, 474, 0" stroke-dashoffset="0" stroke-opacity="" data-original="#000000" class=""></path><path d="M214.103 302.215h-27.764v-96.621h27.764z" style="stroke-width:15;stroke-linecap:round;stroke-linejoin:round;stroke-miterlimit:10;stroke-dasharray:none;stroke-opacity:1" fill="none" stroke="#000000" stroke-width="15" stroke-linecap="round" stroke-linejoin="round" stroke-miterlimit="10" stroke-dasharray="none" stroke-opacity="" data-original="#000000" class=""></path></g></g></svg>