<svg xmlns="http://www.w3.org/2000/svg" version="1.1" xmlns:xlink="http://www.w3.org/1999/xlink" xmlns:svgjs="http://svgjs.com/svgjs" width="512" height="512" x="0" y="0" viewBox="0 0 512 512" style="enable-background:new 0 0 512 512" xml:space="preserve" class=""><g><path fill="#ffffff" d="M396.266 501.588H116.671c-14.133 0-25.59-11.457-25.59-25.59V89.304c0-14.133 11.457-25.59 25.59-25.59h279.595c14.133 0 25.59 11.457 25.59 25.59v386.694c0 14.133-11.457 25.59-25.59 25.59z" data-original="#ffffff" class=""></path><path fill="#ffbffc" d="M396.266 63.714h-41.648c12.204 0 22.098 9.894 22.098 22.098v333.923c0 12.205-9.894 22.098-22.098 22.098h-241.44c-12.204 0-22.098-9.893-22.098-22.098v56.263c0 14.133 11.457 25.59 25.59 25.59h279.595c14.133 0 25.59-11.457 25.59-25.59V89.304c.001-14.133-11.456-25.59-25.589-25.59z" data-original="#ffbffc" class=""></path><g fill="#440a29"><path d="M396.266 53.696H116.671c-19.634 0-35.608 15.974-35.608 35.609v386.693c0 19.635 15.974 35.609 35.608 35.609h279.595c19.634 0 35.608-15.974 35.608-35.609V89.305c0-19.635-15.974-35.609-35.608-35.609zm15.571 422.302c0 8.587-6.985 15.572-15.571 15.572H116.671c-8.586 0-15.571-6.985-15.571-15.572V89.305c0-8.587 6.985-15.572 15.571-15.572h279.595c8.586 0 15.571 6.985 15.571 15.572z" fill="#440a29" data-original="#440a29" class=""></path><path d="M339.041 128.244a1206.724 1206.724 0 0 0 24.13-.086 6.01 6.01 0 0 0 5.929-6.091 5.98 5.98 0 0 0-6.091-5.929c-7.989.108-16.027.134-23.887.083h-.041a6.011 6.011 0 0 0-.04 12.023zM219.171 128.282c7.311.007 14.275.011 20.952.011 19.792 0 37.044-.032 53.202-.098a6.012 6.012 0 0 0-.023-12.022h-.025c-21.587.088-45.128.114-74.093.087h-.006a6.011 6.011 0 0 0-.007 12.022zM149.37 128.16c14.602.043 29.205.073 43.806.092h.008a6.01 6.01 0 0 0 .008-12.022c-14.596-.019-29.191-.049-43.787-.092h-.018a6.011 6.011 0 0 0-.017 12.022zM363.09 212.323H200.884a6.01 6.01 0 1 0 0 12.022H363.09a6.011 6.011 0 0 0 0-12.022zM363.09 167.357H141.885a6.01 6.01 0 1 0 0 12.022H363.09a6.012 6.012 0 0 0 0-12.022zM149.53 237.77h11.561c7.529 0 13.656-6.126 13.656-13.656v-11.561c0-7.529-6.126-13.656-13.656-13.656H149.53c-7.53 0-13.657 6.126-13.657 13.656v11.561c.001 7.53 6.127 13.656 13.657 13.656zm-1.634-25.217c0-.901.734-1.634 1.635-1.634h11.561c.901 0 1.634.733 1.634 1.634v11.561c0 .901-.733 1.634-1.634 1.634H149.53a1.637 1.637 0 0 1-1.635-1.634v-11.561zM363.09 254.447H200.884a6.01 6.01 0 1 0 0 12.022H363.09a6.011 6.011 0 0 0 0-12.022zM149.53 279.894h11.561c7.529 0 13.656-6.126 13.656-13.656v-11.561c0-7.529-6.126-13.656-13.656-13.656H149.53c-7.53 0-13.657 6.126-13.657 13.656v11.561c.001 7.529 6.127 13.656 13.657 13.656zm-1.634-25.217c0-.901.734-1.634 1.635-1.634h11.561c.901 0 1.634.733 1.634 1.634v11.561c0 .901-.733 1.634-1.634 1.634H149.53a1.637 1.637 0 0 1-1.635-1.634v-11.561zM363.09 351.067H200.884a6.01 6.01 0 1 0 0 12.022H363.09a6.011 6.011 0 0 0 0-12.022zM363.09 306.102H141.885a6.01 6.01 0 1 0 0 12.022H363.09a6.011 6.011 0 0 0 0-12.022zM161.092 337.642H149.53c-7.53 0-13.657 6.126-13.657 13.656v11.561c0 7.529 6.126 13.656 13.657 13.656h11.561c7.529 0 13.656-6.126 13.656-13.656v-11.561c0-7.53-6.126-13.656-13.655-13.656zm1.633 25.217c0 .901-.733 1.634-1.634 1.634H149.53a1.637 1.637 0 0 1-1.635-1.634v-11.561c0-.901.734-1.634 1.635-1.634h11.561c.901 0 1.634.733 1.634 1.634zM363.09 393.19H200.884a6.01 6.01 0 1 0 0 12.022H363.09a6.011 6.011 0 0 0 0-12.022zM161.092 379.765H149.53c-7.53 0-13.657 6.126-13.657 13.656v11.561c0 7.529 6.126 13.656 13.657 13.656h11.561c7.529 0 13.656-6.126 13.656-13.656v-11.561c0-7.529-6.126-13.656-13.655-13.656zm1.633 25.217c0 .901-.733 1.634-1.634 1.634H149.53a1.637 1.637 0 0 1-1.635-1.634v-11.561c0-.901.734-1.634 1.635-1.634h11.561c.901 0 1.634.733 1.634 1.634zM363.09 435.315H200.884a6.01 6.01 0 1 0 0 12.022H363.09a6.011 6.011 0 0 0 0-12.022zM161.092 421.889H149.53c-7.53 0-13.657 6.126-13.657 13.656v11.561c0 7.529 6.126 13.656 13.657 13.656h11.561c7.529 0 13.656-6.126 13.656-13.656v-11.561c0-7.529-6.126-13.656-13.655-13.656zm1.633 25.217c0 .901-.733 1.634-1.634 1.634H149.53a1.637 1.637 0 0 1-1.635-1.634v-11.561c0-.901.734-1.634 1.635-1.634h11.561c.901 0 1.634.733 1.634 1.634z" fill="#440a29" data-original="#440a29" class=""></path></g><circle cx="91.081" cy="8.262" r="7.869" fill="#a183e2" transform="rotate(-22.48 91.017 8.215)" data-original="#a183e2"></circle><g fill="#cab4ef"><path d="m30.17 39.245 6.312 17.749c.27.76.805 1.362 1.48 1.666l15.769 7.105c2.228 1.004 2.228 4.553 0 5.557l-15.769 7.104c-.675.304-1.21.906-1.48 1.666L30.17 97.841c-.892 2.507-4.045 2.507-4.937 0L18.92 80.092c-.27-.76-.805-1.362-1.48-1.666L1.671 71.321c-2.228-1.004-2.228-4.553 0-5.557L17.44 58.66c.675-.304 1.21-.906 1.48-1.666l6.312-17.749c.892-2.508 4.046-2.508 4.938 0zM477.328 2.928l8.673 23.927c.371 1.024 1.107 1.836 2.034 2.246l21.668 9.578c3.061 1.353 3.061 6.138 0 7.491l-21.668 9.578c-.928.41-1.663 1.222-2.034 2.246l-8.673 23.927c-1.225 3.381-5.559 3.381-6.784 0l-8.673-23.927c-.371-1.024-1.107-1.836-2.034-2.246l-21.668-9.578c-3.061-1.353-3.061-6.138 0-7.491l21.668-9.578c.928-.41 1.663-1.222 2.034-2.246l8.673-23.927c1.225-3.38 5.559-3.38 6.784 0z" fill="#cab4ef" data-original="#cab4ef"></path></g></g></svg>